<svg xmlns="http://www.w3.org/2000/svg" width="370" height="48" fill="none"><path stroke="#7886CD" stroke-linecap="round" stroke-width="2" d="M12.263 36.2c4.565-3.195 9.13-6.39 13.612-11.155C35.504 14.807 39.159 7.156 39.465 6.92c.215-.164.307 1.134.386 7.007.078 5.872.078 16.675.383 21.784.304 5.11.913 4.196 1.454 3.27 1.057-1.808 3.143-5.368 7.58-11.19 5.838-7.655 13.38-12.327 17.608-13.945 1.27-.486 1.033.664.572 1.515-.922 1.7-5.806 4.83-13.02 8.823-3.04 1.682-5.083 2.167-11.2 2.709-6.116.541-16.31.998-18.367.777-2.057-.222 4.334-1.135 16.451-1.681 12.118-.546 29.769-.699 38.405-.625 8.637.074 7.724.378 2.308 1.296-5.415.917-15.306 2.439-12.565 3.223 2.742.784 18.414.784 25.955.936 7.542.152 6.477.456 3.341.613-15.447.773-19.629-.917-20.32-1.68-.44-.486-.236-1.677.145-2.606.772-1.887 3.447-2.778 6.056-3.163 1.08-.16 1.697.072 2.163.682 3.876 5.085 1.849 13.836 2.462 14.147.976.495 1.383-3.972 2.608-8.8 1.374-5.422 5.06-11.454 8.288-14.015 9.346-7.417.636 14.813 1.093 16.427.401 1.42 3.679.244 11.765-2.576 6.771-2.361 18.736-7.232 26.907-10.727s12.127-5.626 13.86-6.647c1.734-1.021 1.126-.87-6.264 2.024-7.389 2.894-23.109 4.586-30.019 7.562-6.91 2.977-4.579 7.067 1.443 7.145 6.022.078 17.282.078 23.387.154 6.105.077 6.713.229 6.647.231-.841.03-2.981-.915-4.219-2.142-3.562-3.528 14.669-5.053 21.118-6.084 2.64-.422 1.464 4.987 4.221 6.99 2.579 1.874 7.521 1.39 12.277 1.238 3.868-.123 8.915-1.835 15.128-3.981 5.272-1.821 8.261-3.396 9.718-3.55 1.306-.14 2.236 1.219 4.304 2.913 1.181.968 8.478.62 20.137.925 5.426.142 9.833.913 14.388 1.987 9.23 2.177 14.585 4.62 16.498 5.312 4.706 1.7 7.156-.839 12.72-1.146 4.949-.272 14.236-.306 19.778-.537 5.543-.23 7.064-.535 8.229-.844 1.164-.309 5.726-3.172 6.726 0 .109 2.077.219 4.153.275 5.496.056 1.343.056 1.89.056 2.452M281.794 25.102c2.038.28 10.62-.46 13.748-1.167 1.709-.387 2.805-3.778 3.463-5.703 1.282-3.75 10.848-.337 11.829.364 2.094 1.495 1.174 5.94 1.595 7.063.111.295.326.56.607.796.28.236.651.42 3.435.516 2.784.096 7.97.096 13.313.096"/><path stroke="#7886CD" stroke-linecap="round" stroke-width="2" d="M294.274 32.37c-.11 1.53-.219 3.06-.33 4.066-.111 1.007-.22 1.444-.276 1.888-.057.443-.057.88-.057 1.33"/></svg>